<mxfile host="app.diagrams.net" agent="Mozilla/5.0 (Windows NT 10.0; Win64; x64) AppleWebKit/537.36 (KHTML, like Gecko) Chrome/127.0.0.0 Safari/537.36" version="24.7.7">
  <diagram id="C5RBs43oDa-KdzZeNtuy" name="Page-1">
    <mxGraphModel dx="914" dy="798" grid="1" gridSize="10" guides="1" tooltips="1" connect="1" arrows="1" fold="1" page="1" pageScale="1" pageWidth="827" pageHeight="1169" math="0" shadow="0">
      <root>
        <mxCell id="WIyWlLk6GJQsqaUBKTNV-0" />
        <mxCell id="WIyWlLk6GJQsqaUBKTNV-1" parent="WIyWlLk6GJQsqaUBKTNV-0" />
        <mxCell id="cY69_dJUkXowJfUFCSSc-3" value="" style="edgeStyle=orthogonalEdgeStyle;rounded=0;orthogonalLoop=1;jettySize=auto;html=1;" edge="1" parent="WIyWlLk6GJQsqaUBKTNV-1" source="cY69_dJUkXowJfUFCSSc-0" target="cY69_dJUkXowJfUFCSSc-2">
          <mxGeometry relative="1" as="geometry" />
        </mxCell>
        <mxCell id="cY69_dJUkXowJfUFCSSc-0" value="Start" style="rounded=0;whiteSpace=wrap;html=1;" vertex="1" parent="WIyWlLk6GJQsqaUBKTNV-1">
          <mxGeometry x="40" y="500" width="100" height="60" as="geometry" />
        </mxCell>
        <mxCell id="cY69_dJUkXowJfUFCSSc-9" value="" style="edgeStyle=orthogonalEdgeStyle;rounded=0;orthogonalLoop=1;jettySize=auto;html=1;" edge="1" parent="WIyWlLk6GJQsqaUBKTNV-1" source="cY69_dJUkXowJfUFCSSc-2" target="cY69_dJUkXowJfUFCSSc-8">
          <mxGeometry relative="1" as="geometry" />
        </mxCell>
        <mxCell id="cY69_dJUkXowJfUFCSSc-2" value="Temperature Sensor" style="rounded=0;whiteSpace=wrap;html=1;" vertex="1" parent="WIyWlLk6GJQsqaUBKTNV-1">
          <mxGeometry x="190" y="500" width="80" height="60" as="geometry" />
        </mxCell>
        <mxCell id="cY69_dJUkXowJfUFCSSc-13" value="" style="edgeStyle=orthogonalEdgeStyle;rounded=0;orthogonalLoop=1;jettySize=auto;html=1;" edge="1" parent="WIyWlLk6GJQsqaUBKTNV-1" source="cY69_dJUkXowJfUFCSSc-8" target="cY69_dJUkXowJfUFCSSc-12">
          <mxGeometry relative="1" as="geometry" />
        </mxCell>
        <mxCell id="cY69_dJUkXowJfUFCSSc-15" value="" style="edgeStyle=orthogonalEdgeStyle;rounded=0;orthogonalLoop=1;jettySize=auto;html=1;" edge="1" parent="WIyWlLk6GJQsqaUBKTNV-1" source="cY69_dJUkXowJfUFCSSc-8" target="cY69_dJUkXowJfUFCSSc-14">
          <mxGeometry relative="1" as="geometry" />
        </mxCell>
        <mxCell id="cY69_dJUkXowJfUFCSSc-8" value="LED" style="rhombus;whiteSpace=wrap;html=1;rounded=0;" vertex="1" parent="WIyWlLk6GJQsqaUBKTNV-1">
          <mxGeometry x="350" y="490" width="80" height="80" as="geometry" />
        </mxCell>
        <mxCell id="cY69_dJUkXowJfUFCSSc-28" style="edgeStyle=orthogonalEdgeStyle;rounded=0;orthogonalLoop=1;jettySize=auto;html=1;entryX=0.5;entryY=0;entryDx=0;entryDy=0;" edge="1" parent="WIyWlLk6GJQsqaUBKTNV-1" source="cY69_dJUkXowJfUFCSSc-12" target="cY69_dJUkXowJfUFCSSc-24">
          <mxGeometry relative="1" as="geometry" />
        </mxCell>
        <mxCell id="cY69_dJUkXowJfUFCSSc-12" value="heat is off" style="rounded=0;whiteSpace=wrap;html=1;" vertex="1" parent="WIyWlLk6GJQsqaUBKTNV-1">
          <mxGeometry x="350" y="390" width="80" height="60" as="geometry" />
        </mxCell>
        <mxCell id="cY69_dJUkXowJfUFCSSc-17" value="" style="edgeStyle=orthogonalEdgeStyle;rounded=0;orthogonalLoop=1;jettySize=auto;html=1;" edge="1" parent="WIyWlLk6GJQsqaUBKTNV-1" source="cY69_dJUkXowJfUFCSSc-14" target="cY69_dJUkXowJfUFCSSc-16">
          <mxGeometry relative="1" as="geometry" />
        </mxCell>
        <mxCell id="cY69_dJUkXowJfUFCSSc-14" value="heat is on" style="rounded=0;whiteSpace=wrap;html=1;" vertex="1" parent="WIyWlLk6GJQsqaUBKTNV-1">
          <mxGeometry x="350" y="600" width="80" height="60" as="geometry" />
        </mxCell>
        <mxCell id="cY69_dJUkXowJfUFCSSc-19" value="" style="edgeStyle=orthogonalEdgeStyle;rounded=0;orthogonalLoop=1;jettySize=auto;html=1;" edge="1" parent="WIyWlLk6GJQsqaUBKTNV-1" source="cY69_dJUkXowJfUFCSSc-16">
          <mxGeometry relative="1" as="geometry">
            <mxPoint x="530" y="730" as="targetPoint" />
          </mxGeometry>
        </mxCell>
        <mxCell id="cY69_dJUkXowJfUFCSSc-23" value="" style="edgeStyle=orthogonalEdgeStyle;rounded=0;orthogonalLoop=1;jettySize=auto;html=1;" edge="1" parent="WIyWlLk6GJQsqaUBKTNV-1" source="cY69_dJUkXowJfUFCSSc-16" target="cY69_dJUkXowJfUFCSSc-21">
          <mxGeometry relative="1" as="geometry" />
        </mxCell>
        <mxCell id="cY69_dJUkXowJfUFCSSc-16" value="Buttons" style="rhombus;whiteSpace=wrap;html=1;rounded=0;" vertex="1" parent="WIyWlLk6GJQsqaUBKTNV-1">
          <mxGeometry x="490" y="590" width="80" height="80" as="geometry" />
        </mxCell>
        <mxCell id="cY69_dJUkXowJfUFCSSc-30" style="edgeStyle=orthogonalEdgeStyle;rounded=0;orthogonalLoop=1;jettySize=auto;html=1;" edge="1" parent="WIyWlLk6GJQsqaUBKTNV-1" source="cY69_dJUkXowJfUFCSSc-20">
          <mxGeometry relative="1" as="geometry">
            <mxPoint x="690" y="660" as="targetPoint" />
          </mxGeometry>
        </mxCell>
        <mxCell id="cY69_dJUkXowJfUFCSSc-20" value="increase temp&lt;span style=&quot;color: rgba(0, 0, 0, 0); font-family: monospace; font-size: 0px; text-align: start; text-wrap: nowrap;&quot;&gt;%3CmxGraphModel%3E%3Croot%3E%3CmxCell%20id%3D%220%22%2F%3E%3CmxCell%20id%3D%221%22%20parent%3D%220%22%2F%3E%3CmxCell%20id%3D%222%22%20value%3D%22heat%20is%20on%22%20style%3D%22rounded%3D0%3BwhiteSpace%3Dwrap%3Bhtml%3D1%3B%22%20vertex%3D%221%22%20parent%3D%221%22%3E%3CmxGeometry%20x%3D%22350%22%20y%3D%22600%22%20width%3D%2280%22%20height%3D%2260%22%20as%3D%22geometry%22%2F%3E%3C%2FmxCell%3E%3C%2Froot%3E%3C%2FmxGraphModel%3E&lt;/span&gt;" style="rounded=0;whiteSpace=wrap;html=1;" vertex="1" parent="WIyWlLk6GJQsqaUBKTNV-1">
          <mxGeometry x="490" y="730" width="80" height="60" as="geometry" />
        </mxCell>
        <mxCell id="cY69_dJUkXowJfUFCSSc-29" style="edgeStyle=orthogonalEdgeStyle;rounded=0;orthogonalLoop=1;jettySize=auto;html=1;entryX=0;entryY=0.5;entryDx=0;entryDy=0;" edge="1" parent="WIyWlLk6GJQsqaUBKTNV-1" source="cY69_dJUkXowJfUFCSSc-21" target="cY69_dJUkXowJfUFCSSc-24">
          <mxGeometry relative="1" as="geometry" />
        </mxCell>
        <mxCell id="cY69_dJUkXowJfUFCSSc-21" value="decrease temp" style="rounded=0;whiteSpace=wrap;html=1;" vertex="1" parent="WIyWlLk6GJQsqaUBKTNV-1">
          <mxGeometry x="490" y="500" width="80" height="60" as="geometry" />
        </mxCell>
        <mxCell id="cY69_dJUkXowJfUFCSSc-26" value="" style="edgeStyle=orthogonalEdgeStyle;rounded=0;orthogonalLoop=1;jettySize=auto;html=1;" edge="1" parent="WIyWlLk6GJQsqaUBKTNV-1" source="cY69_dJUkXowJfUFCSSc-24" target="cY69_dJUkXowJfUFCSSc-25">
          <mxGeometry relative="1" as="geometry" />
        </mxCell>
        <mxCell id="cY69_dJUkXowJfUFCSSc-24" value="UART" style="rounded=0;whiteSpace=wrap;html=1;" vertex="1" parent="WIyWlLk6GJQsqaUBKTNV-1">
          <mxGeometry x="640" y="605" width="90" height="50" as="geometry" />
        </mxCell>
        <mxCell id="cY69_dJUkXowJfUFCSSc-25" value="Server" style="rounded=0;whiteSpace=wrap;html=1;" vertex="1" parent="WIyWlLk6GJQsqaUBKTNV-1">
          <mxGeometry x="760" y="605" width="90" height="50" as="geometry" />
        </mxCell>
      </root>
    </mxGraphModel>
  </diagram>
</mxfile>
